<svg width="32" height="32" viewBox="0 0 32 32" fill="none" xmlns="http://www.w3.org/2000/svg">
<path d="M16.1024 15.328C16.2066 15.3419 16.3126 15.3351 16.4141 15.308C16.5157 15.2809 16.611 15.2341 16.6945 15.1702C16.778 15.1063 16.8481 15.0266 16.9008 14.9357C16.9535 14.8447 16.9877 14.7442 17.0016 14.64C17.0155 14.5358 17.0087 14.4299 16.9816 14.3283C16.9545 14.2267 16.9077 14.1314 16.8438 14.0479C16.78 13.9644 16.7002 13.8943 16.6093 13.8416C16.5183 13.7889 16.4178 13.7547 16.3136 13.7408C14.8096 13.5408 13.4656 14.6848 13.4656 16.352C13.4656 16.5642 13.5499 16.7677 13.6999 16.9177C13.8499 17.0677 14.0534 17.152 14.2656 17.152C14.4778 17.152 14.6813 17.0677 14.8313 16.9177C14.9813 16.7677 15.0656 16.5642 15.0656 16.352C15.0656 15.6192 15.5904 15.2592 16.1024 15.328Z" fill="#5D5D5D"/>
<path d="M16.6528 23.9424C18.5603 23.9424 20.3896 23.1847 21.7383 21.8359C23.0871 20.4871 23.8448 18.6578 23.8448 16.7504C23.8448 14.843 23.0871 13.0136 21.7383 11.6649C20.3896 10.3161 18.5603 9.5584 16.6528 9.5584C14.7454 9.5584 12.9161 10.3161 11.5673 11.6649C10.2185 13.0136 9.46082 14.843 9.46082 16.7504C9.46082 18.6578 10.2185 20.4871 11.5673 21.8359C12.9161 23.1847 14.7454 23.9424 16.6528 23.9424ZM16.6528 22.3424C15.9185 22.3424 15.1913 22.1978 14.5128 21.9167C13.8344 21.6357 13.2179 21.2238 12.6987 20.7045C12.1794 20.1853 11.7675 19.5688 11.4865 18.8904C11.2055 18.2119 11.0608 17.4847 11.0608 16.7504C11.0608 16.016 11.2055 15.2889 11.4865 14.6104C11.7675 13.932 12.1794 13.3155 12.6987 12.7963C13.2179 12.277 13.8344 11.8651 14.5128 11.5841C15.1913 11.303 15.9185 11.1584 16.6528 11.1584C18.1359 11.1584 19.5583 11.7476 20.607 12.7963C21.6557 13.845 22.2448 15.2673 22.2448 16.7504C22.2448 18.2335 21.6557 19.6558 20.607 20.7045C19.5583 21.7532 18.1359 22.3424 16.6528 22.3424Z" fill="#5D5D5D"/>
<path d="M18.6016 3.31839C20.2736 3.42879 21.8432 3.92479 22.9648 4.63199C25.536 6.25599 26.6448 8.04319 27.2848 9.15999C27.9072 10.2464 29.1344 12.6528 28.9584 15.2784C28.8912 16.2784 28.7744 16.8912 28.68 17.384L28.616 17.7264C28.5264 18.2464 28.4704 18.7776 28.5648 19.9312C28.6768 21.2944 28.4016 22.784 27.8256 24.1072C27.2496 25.4272 26.3456 26.6464 25.1408 27.4C22.6368 28.9648 19.6208 29.304 16.792 28.1728C15.4976 27.6544 15.0608 27.5328 14.5712 27.5024C14.2267 27.4896 13.8818 27.4933 13.5376 27.5136H13.5264C13.0624 27.5312 12.4672 27.5536 11.64 27.5536C8.0032 27.5536 5.584 25.3792 4.3488 23.0032C2.5392 19.5216 2.5888 14.2528 6.568 11.1104C7.784 10.1504 8.1472 9.83199 8.5568 9.14719C9.2304 8.02399 9.8704 7.14559 10.6448 6.38559C11.4208 5.62559 12.3024 5.01279 13.4352 4.39039C15.0816 3.48479 16.9232 3.20959 18.6016 3.31839ZM18.4976 4.91519C17.0576 4.82079 15.5312 5.06239 14.2048 5.79199C13.1584 6.36799 12.4064 6.89919 11.7648 7.52799C11.1232 8.15839 10.5632 8.91359 9.9296 9.97119C9.3504 10.936 8.7648 11.4144 7.56 12.3664C4.344 14.904 4.2064 19.2624 5.768 22.2656C6.8 24.2496 8.7408 25.9536 11.64 25.9536C12.4368 25.9536 13.0096 25.9328 13.4688 25.9152H13.4992C13.9408 25.8976 14.3152 25.8832 14.672 25.9056C15.4448 25.9536 16.096 26.1712 17.3856 26.6864C19.7232 27.6224 22.2048 27.3488 24.2928 26.0432C25.1536 25.504 25.8768 24.5776 26.3584 23.4672C26.8416 22.3616 27.0592 21.1344 26.9712 20.064C26.8656 18.784 26.9232 18.1168 27.04 17.4528L27.112 17.0656C27.2032 16.5808 27.3008 16.0656 27.3616 15.1712C27.5056 13.048 26.4928 10.9968 25.8976 9.95679C25.32 8.95039 24.3712 7.41279 22.1104 5.98559C21.2464 5.44159 19.944 5.00959 18.4976 4.91519Z" fill="#5D5D5D"/>
</svg>
