<svg width="36" height="40" viewBox="0 0 36 40" fill="none" xmlns="http://www.w3.org/2000/svg">
<path d="M26.101 32.18C25.1921 32.16 24.461 31.4 24.461 30.48C24.4413 29.56 25.1723 28.802 26.0812 28.782H26.101C27.0296 28.782 27.7805 29.542 27.7805 30.48C27.7805 31.42 27.0296 32.18 26.101 32.18ZM18.0395 24.82C17.1306 24.862 16.3798 24.14 16.3403 23.222C16.3403 22.302 17.0516 21.542 17.9605 21.5C18.8496 21.5 19.5807 22.202 19.6004 23.1C19.64 24.022 18.9286 24.782 18.0395 24.82ZM18.0395 32.08C17.1306 32.122 16.3798 31.4 16.3403 30.48C16.3403 29.56 17.0516 28.802 17.9605 28.76C18.8496 28.76 19.5807 29.462 19.6004 30.362C19.64 31.282 18.9286 32.042 18.0395 32.08ZM9.91877 24.82C9.00988 24.862 8.25906 24.14 8.21954 23.222C8.21954 22.302 8.93085 21.542 9.83974 21.5C10.7289 21.5 11.4599 22.202 11.4797 23.1C11.5192 24.022 10.8079 24.782 9.91877 24.82ZM9.89901 32.08C8.99012 32.122 8.2393 31.4 8.19978 30.48C8.19978 29.56 8.91109 28.802 9.81998 28.76C10.7091 28.76 11.4402 29.462 11.4599 30.362C11.4995 31.282 10.7881 32.042 9.89901 32.08ZM24.4808 23.202C24.4808 22.282 25.1921 21.542 26.101 21.522C26.9901 21.522 27.7014 22.24 27.7409 23.122C27.7607 24.042 27.0494 24.802 26.1603 24.82C25.2514 24.84 24.5005 24.14 24.4808 23.222V23.202ZM0 14.514V29.74C0 36.06 3.99122 40 10.2547 40H25.7256C32.0483 40 36 36.14 36 29.862V14.514H0Z" fill="#E5641C"/>
<path opacity="0.4" d="M0.00671387 14.5138C0.0323999 13.3398 0.131192 11.0098 0.316922 10.2598C1.26533 6.0418 4.48597 3.3618 9.0897 2.9798H26.9119C31.4761 3.3818 34.7362 6.0798 35.6847 10.2598C35.8684 10.9898 35.9672 13.3378 35.9929 14.5138H0.00671387Z" fill="#E5641C"/>
<path d="M10.6097 9.18C11.4791 9.18 12.1311 8.522 12.1311 7.64V1.542C12.1311 0.66 11.4791 0 10.6097 0C9.74035 0 9.08832 0.66 9.08832 1.542V7.64C9.08832 8.522 9.74035 9.18 10.6097 9.18Z" fill="#E5641C"/>
<path d="M25.3899 9.18C26.2395 9.18 26.9113 8.522 26.9113 7.64V1.542C26.9113 0.66 26.2395 0 25.3899 0C24.5205 0 23.8685 0.66 23.8685 1.542V7.64C23.8685 8.522 24.5205 9.18 25.3899 9.18Z" fill="#E5641C"/>
</svg>
