<svg width="26" height="26" viewBox="0 0 26 26" fill="none" xmlns="http://www.w3.org/2000/svg">
<path d="M21.8571 0.428569C22.8422 0.428569 23.787 0.819894 24.4835 1.51646C25.1801 2.21302 25.5714 3.15776 25.5714 4.14285V21.8571C25.5714 22.8422 25.1801 23.787 24.4835 24.4835C23.787 25.1801 22.8422 25.5714 21.8571 25.5714H4.14284C3.15775 25.5714 2.21301 25.1801 1.51645 24.4835C0.819884 23.787 0.428558 22.8422 0.428558 21.8571V4.14285C0.428558 3.15776 0.819884 2.21302 1.51645 1.51646C2.21301 0.819894 3.15775 0.428569 4.14284 0.428569H21.8571ZM23.8571 7.86057H2.14284V21.8571C2.14284 22.9611 3.03884 23.8571 4.14284 23.8571H21.8571C22.3876 23.8571 22.8963 23.6464 23.2713 23.2714C23.6464 22.8963 23.8571 22.3876 23.8571 21.8571V7.86057ZM6.99884 17.0011C7.37772 17.0011 7.74109 17.1517 8.009 17.4196C8.2769 17.6875 8.42741 18.0508 8.42741 18.4297C8.42741 18.8086 8.2769 19.172 8.009 19.4399C7.74109 19.7078 7.37772 19.8583 6.99884 19.8583C6.61996 19.8583 6.2566 19.7078 5.98869 19.4399C5.72078 19.172 5.57027 18.8086 5.57027 18.4297C5.57027 18.0508 5.72078 17.6875 5.98869 17.4196C6.2566 17.1517 6.61996 17.0011 6.99884 17.0011ZM13.0034 17.0011C13.3823 17.0011 13.7457 17.1517 14.0136 17.4196C14.2815 17.6875 14.432 18.0508 14.432 18.4297C14.432 18.8086 14.2815 19.172 14.0136 19.4399C13.7457 19.7078 13.3823 19.8583 13.0034 19.8583C12.6245 19.8583 12.2612 19.7078 11.9933 19.4399C11.7254 19.172 11.5748 18.8086 11.5748 18.4297C11.5748 18.0508 11.7254 17.6875 11.9933 17.4196C12.2612 17.1517 12.6245 17.0011 13.0034 17.0011ZM6.99884 11.2869C7.37772 11.2869 7.74109 11.4374 8.009 11.7053C8.2769 11.9732 8.42741 12.3365 8.42741 12.7154C8.42741 13.0943 8.2769 13.4577 8.009 13.7256C7.74109 13.9935 7.37772 14.144 6.99884 14.144C6.61996 14.144 6.2566 13.9935 5.98869 13.7256C5.72078 13.4577 5.57027 13.0943 5.57027 12.7154C5.57027 12.3365 5.72078 11.9732 5.98869 11.7053C6.2566 11.4374 6.61996 11.2869 6.99884 11.2869ZM13.0034 11.2869C13.3823 11.2869 13.7457 11.4374 14.0136 11.7053C14.2815 11.9732 14.432 12.3365 14.432 12.7154C14.432 13.0943 14.2815 13.4577 14.0136 13.7256C13.7457 13.9935 13.3823 14.144 13.0034 14.144C12.6245 14.144 12.2612 13.9935 11.9933 13.7256C11.7254 13.4577 11.5748 13.0943 11.5748 12.7154C11.5748 12.3365 11.7254 11.9732 11.9933 11.7053C12.2612 11.4374 12.6245 11.2869 13.0034 11.2869ZM19.0091 11.2869C19.388 11.2869 19.7514 11.4374 20.0193 11.7053C20.2872 11.9732 20.4377 12.3365 20.4377 12.7154C20.4377 13.0943 20.2872 13.4577 20.0193 13.7256C19.7514 13.9935 19.388 14.144 19.0091 14.144C18.6302 14.144 18.2669 13.9935 17.999 13.7256C17.7311 13.4577 17.5806 13.0943 17.5806 12.7154C17.5806 12.3365 17.7311 11.9732 17.999 11.7053C18.2669 11.4374 18.6302 11.2869 19.0091 11.2869ZM21.8571 2.14285H4.14284C3.61241 2.14285 3.1037 2.35357 2.72863 2.72864C2.35356 3.10371 2.14284 3.61242 2.14284 4.14285V6.14628H23.8571V4.14285C23.8571 3.61242 23.6464 3.10371 23.2713 2.72864C22.8963 2.35357 22.3876 2.14285 21.8571 2.14285Z" fill="#5D5D5D"/>
</svg>
