<svg width="32" height="32" viewBox="0 0 32 32" fill="none" xmlns="http://www.w3.org/2000/svg">
<path d="M13.0101 12.0458L13.253 11.8976L13.0314 11.7192C11.9331 10.8347 11.2 9.50271 11.2 8C11.2 5.36046 13.3605 3.2 16 3.2C18.6395 3.2 20.8 5.36046 20.8 8C20.8 9.50271 20.0669 10.8347 18.9686 11.7192L18.747 11.8976L18.9899 12.0458C20.6642 13.0668 21.8 14.9062 21.8 17V20.3294L21.5738 20.5814L19.8586 22.2955L19.8 22.3541V22.437V28.8H18.2V24V23.8H18H14H13.8V24V28.8H12.2V22.437V22.3541L12.1414 22.2955L10.4262 20.5814L10.2 20.3294V17C10.2 14.9062 11.3358 13.0668 13.0101 12.0458ZM20.1413 19.7046L20.2 19.646V19.563V17C20.2 14.6705 18.3295 12.8 16 12.8C13.6705 12.8 11.8 14.6705 11.8 17V19.562V19.6447L11.8584 19.7033L12.2954 20.1413L12.354 20.2H12.437H19.562H19.6447L19.7033 20.1416L20.1413 19.7046ZM19.2 8C19.2 6.22154 17.7785 4.8 16 4.8C14.2215 4.8 12.8 6.22154 12.8 8C12.8 9.77846 14.2215 11.2 16 11.2C17.7785 11.2 19.2 9.77846 19.2 8Z" fill="#5D5D5D" stroke="white" stroke-width="0.4"/>
</svg>
