<svg width="32" height="32" viewBox="0 0 32 32" fill="none" xmlns="http://www.w3.org/2000/svg">
<path d="M15.2 4.8C15.3872 4.79994 15.5686 4.86555 15.7124 4.98542C15.8563 5.10529 15.9535 5.27182 15.9872 5.456L16 5.6V10.4C16.0002 11.3221 15.6818 12.216 15.0986 12.9303C14.5155 13.6447 13.7035 14.1356 12.8 14.32V26.4C12.8004 26.5999 12.7259 26.7927 12.5912 26.9405C12.4565 27.0882 12.2714 27.1801 12.0723 27.1982C11.8732 27.2163 11.6745 27.1591 11.5155 27.038C11.3564 26.917 11.2484 26.7407 11.2128 26.544L11.2 26.4V14.32C10.3427 14.1447 9.56644 13.6931 8.99021 13.0345C8.41399 12.3759 8.06953 11.5466 8.0096 10.6736L8 10.4V5.6C7.99963 5.40008 8.07413 5.20728 8.20881 5.05954C8.3435 4.91181 8.52862 4.81986 8.72772 4.8018C8.92681 4.78373 9.12546 4.84087 9.28453 4.96195C9.44361 5.08303 9.55159 5.25928 9.5872 5.456L9.6 5.6V10.4C9.59974 10.8965 9.75349 11.3809 10.04 11.7864C10.3266 12.1919 10.7319 12.4985 11.2 12.664V5.6C11.1996 5.40008 11.2741 5.20728 11.4088 5.05954C11.5435 4.91181 11.7286 4.81986 11.9277 4.8018C12.1268 4.78373 12.3255 4.84087 12.4845 4.96195C12.6436 5.08303 12.7516 5.25928 12.7872 5.456L12.8 5.6V12.6624C13.6608 12.3584 14.296 11.5776 14.3888 10.6384L14.4 10.4V5.6C14.4 5.38782 14.4843 5.18434 14.6343 5.03431C14.7843 4.88428 14.9878 4.8 15.2 4.8ZM23.2 4.8C23.3872 4.79994 23.5686 4.86555 23.7124 4.98542C23.8563 5.10529 23.9535 5.27182 23.9872 5.456L24 5.6V26.4C24.0004 26.5999 23.9259 26.7927 23.7912 26.9405C23.6565 27.0882 23.4714 27.1801 23.2723 27.1982C23.0732 27.2163 22.8745 27.1591 22.7155 27.038C22.5564 26.917 22.4484 26.7407 22.4128 26.544L22.4 26.4V17.6H20C19.8128 17.6001 19.6314 17.5344 19.4876 17.4146C19.3437 17.2947 19.2465 17.1282 19.2128 16.944L19.2 16.8V8.8C19.2 7.73913 19.6214 6.72172 20.3716 5.97157C21.1217 5.22142 22.1391 4.8 23.2 4.8ZM22.4 16V6.536C21.5392 6.84 20.904 7.6208 20.8112 8.5616L20.8 8.8V16H22.4V6.536V16Z" fill="#5D5D5D"/>
</svg>
