<svg width="28" height="40" viewBox="0 0 28 40" fill="none" xmlns="http://www.w3.org/2000/svg">
<path d="M7.06324 1.87354C11.433 -0.665451 16.8041 -0.621074 21.1328 1.98979C25.4189 4.65383 28.0239 9.40835 27.9998 14.5229C27.8999 19.6039 25.1066 24.38 21.6149 28.0722C19.5997 30.2128 17.3452 32.1057 14.8977 33.7121C14.6456 33.8578 14.3695 33.9554 14.083 34C13.8072 33.9883 13.5386 33.9068 13.3015 33.7629C9.56485 31.3491 6.28667 28.2681 3.62466 24.6679C1.39717 21.6627 0.131669 18.032 0 14.2688L0.00997244 13.7214C0.191844 8.80929 2.84959 4.32186 7.06324 1.87354ZM15.8145 10.0695C14.0381 9.31447 11.9901 9.7247 10.6266 11.1087C9.26318 12.4927 8.85328 14.5774 9.58833 16.3896C10.3234 18.2017 12.0584 19.3837 13.9832 19.3837C15.2442 19.3928 16.4564 18.8877 17.3496 17.981C18.2429 17.0742 18.743 15.8413 18.7385 14.5568C18.7452 12.5961 17.5909 10.8246 15.8145 10.0695Z" fill="#E5641C"/>
<path opacity="0.4" d="M14 40C19.5228 40 24 39.1046 24 38C24 36.8954 19.5228 36 14 36C8.47715 36 4 36.8954 4 38C4 39.1046 8.47715 40 14 40Z" fill="#E5641C"/>
</svg>
