<svg width="32" height="32" viewBox="0 0 32 32" fill="none" xmlns="http://www.w3.org/2000/svg">
<path d="M20.125 26C20.125 28.2094 18.8344 30 16.625 30H8.375C6.16563 30 4.875 28.2094 4.875 26" stroke="#5D5D5D" stroke-width="2" stroke-miterlimit="10" stroke-linecap="round"/>
<path d="M21 21C22.1044 21 23 22.1194 23 23.5C23 24.8806 22.1044 26 21 26H4C2.89562 26 2 24.8806 2 23.5C2 22.1194 2.89562 21 4 21" stroke="#5D5D5D" stroke-width="2" stroke-miterlimit="10" stroke-linecap="round"/>
<path d="M21.5 21H11.2069C11.0744 21.0001 10.9474 21.0527 10.8538 21.1462L9.17688 22.8231C9.15366 22.8464 9.12609 22.8648 9.09574 22.8774C9.06539 22.89 9.03285 22.8964 9 22.8964C8.96715 22.8964 8.93461 22.89 8.90426 22.8774C8.87391 22.8648 8.84634 22.8464 8.82312 22.8231L7.14625 21.1462C7.05255 21.0527 6.92556 21.0001 6.79313 21H3.5C3.10218 21 2.72064 20.842 2.43934 20.5607C2.15804 20.2794 2 19.8978 2 19.5V19.5C2 19.1022 2.15804 18.7206 2.43934 18.4393C2.72064 18.158 3.10218 18 3.5 18H21.5C21.8978 18 22.2794 18.158 22.5607 18.4393C22.842 18.7206 23 19.1022 23 19.5C23 19.8978 22.842 20.2794 22.5607 20.5607C22.2794 20.842 21.8978 21 21.5 21Z" stroke="#5D5D5D" stroke-width="2" stroke-miterlimit="10" stroke-linecap="round"/>
<path d="M4 17.25V17.2362C4 13.7987 6.8125 12 10.25 12H14.75C18.1875 12 21 13.8125 21 17.25V17.2362" stroke="#5D5D5D" stroke-width="2" stroke-miterlimit="10" stroke-linecap="round"/>
<path d="M15.0625 7L15.5275 10.9981" stroke="#5D5D5D" stroke-width="2" stroke-miterlimit="10" stroke-linecap="round"/>
<path d="M16 30H24.7069C25.2114 30 25.6974 29.8093 26.0672 29.4661C26.4371 29.1229 26.6636 28.6525 26.7013 28.1494L28.9375 7" stroke="#5D5D5D" stroke-width="2" stroke-miterlimit="10" stroke-linecap="round"/>
<path d="M23 7L24 3L26.9375 2" stroke="#5D5D5D" stroke-width="2" stroke-linecap="round" stroke-linejoin="round"/>
<path d="M14 7H30" stroke="#5D5D5D" stroke-width="2" stroke-miterlimit="10" stroke-linecap="round"/>
</svg>
