<svg width="35" height="24" viewBox="0 0 35 24" fill="none" xmlns="http://www.w3.org/2000/svg">
<path d="M0 1.70571C0 0.762857 0.764571 0 1.70571 0H15.4371C15.8895 1.34821e-08 16.3234 0.179708 16.6433 0.499592C16.9631 0.819475 17.1429 1.25333 17.1429 1.70571C17.1429 2.1581 16.9631 2.59195 16.6433 2.91184C16.3234 3.23172 15.8895 3.41143 15.4371 3.41143H1.70571C1.25333 3.41143 0.819476 3.23172 0.499592 2.91184C0.179709 2.59195 0 2.1581 0 1.70571Z" fill="black"/>
<path d="M0 12C0 11.0572 0.764571 10.2943 1.70571 10.2943H32.58C33.0324 10.2943 33.4662 10.474 33.7861 10.7939C34.106 11.1138 34.2857 11.5476 34.2857 12C34.2857 12.4524 34.106 12.8863 33.7861 13.2061C33.4662 13.526 33.0324 13.7057 32.58 13.7057H1.70571C1.25333 13.7057 0.819476 13.526 0.499592 13.2061C0.179709 12.8863 0 12.4524 0 12Z" fill="black"/>
<path d="M1.70571 20.5886C1.25333 20.5886 0.819476 20.7683 0.499592 21.0882C0.179709 21.408 0 21.8419 0 22.2943C0 22.7467 0.179709 23.1805 0.499592 23.5004C0.819476 23.8203 1.25333 24 1.70571 24H22.2943C22.7467 24 23.1805 23.8203 23.5004 23.5004C23.8203 23.1805 24 22.7467 24 22.2943C24 21.8419 23.8203 21.408 23.5004 21.0882C23.1805 20.7683 22.7467 20.5886 22.2943 20.5886H1.70571Z" fill="black"/>
</svg>
