<svg width="32" height="32" viewBox="0 0 32 32" fill="none" xmlns="http://www.w3.org/2000/svg">
<path d="M9.968 12.728C9.968 12.5158 10.0523 12.3124 10.2023 12.1623C10.3523 12.0123 10.5558 11.928 10.768 11.928H17.72C17.9322 11.928 18.1357 12.0123 18.2857 12.1623C18.4357 12.3124 18.52 12.5158 18.52 12.728V19.272C18.52 19.4842 18.4357 19.6877 18.2857 19.8377C18.1357 19.9877 17.9322 20.072 17.72 20.072H10.7664C10.5542 20.072 10.3507 19.9877 10.2007 19.8377C10.0507 19.6877 9.9664 19.4842 9.9664 19.272V12.728H9.968ZM11.568 18.472H16.92V13.528H11.5664V18.472H11.568Z" fill="#5D5D5D"/>
<path d="M2.872 7.9648C3.84 5.7696 6.0304 4 8.6432 4H24.5264C27.3488 4 30.4176 6.3344 30.4176 9.8912C30.4176 12.016 29.1936 13.824 28.3744 14.7056C28.3568 15.8384 28.4032 17.3568 28.4576 18.9776L28.4736 19.4544C28.5296 21.0688 28.5872 22.7408 28.5872 24.1456C28.5872 25.4544 28.4464 26.576 27.656 27.2688C27.2624 27.6144 26.7808 27.7888 26.2736 27.8832C25.6958 27.9737 25.1111 28.0127 24.5264 28H8.2352C6.3552 28 5.2064 27.4384 4.6224 26.4656C4.1536 25.6832 4.168 24.7696 4.176 24.2896L4.1776 24.1456V14.728C2.0976 12.7552 1.9264 10.104 2.872 7.9648ZM8.6432 5.6C6.776 5.6 5.0976 6.8848 4.3344 8.6112C3.5904 10.2976 3.7696 12.2944 5.496 13.7616C5.5841 13.8366 5.6549 13.9297 5.70352 14.0347C5.75213 14.1397 5.77741 14.2539 5.7776 14.3696V24.2976C5.776 24.8304 5.7744 25.2736 5.9952 25.6416C6.1744 25.944 6.6544 26.4 8.2352 26.4H20.4544C21.0944 26.4 21.5424 26.3744 21.872 26.3104C22.192 26.248 22.3248 26.1632 22.392 26.0976C22.4592 26.032 22.5456 25.9024 22.6112 25.5824C22.6784 25.2544 22.7072 24.7984 22.7072 24.1456C22.7072 23.1488 22.7008 22.0496 22.6944 20.9392C22.6784 18.6752 22.6624 16.3584 22.7104 14.7552C22.7154 14.5509 22.7984 14.3562 22.9424 14.2112C23.1184 14.0368 23.2832 13.8832 23.4384 13.7376C23.8112 13.392 24.1328 13.0912 24.4352 12.648C24.824 12.0752 25.1632 11.2608 25.2384 9.872C25.2304 8.7936 24.6144 7.7328 23.6448 6.912C22.6688 6.0816 21.448 5.6 20.4544 5.6H8.6432ZM24.1792 25.904C24.144 26.0736 24.0992 26.24 24.04 26.4H24.5264C25.1632 26.4 25.6304 26.3744 25.9824 26.3088C26.3296 26.2448 26.5024 26.1536 26.6 26.0672C26.792 25.8976 26.9872 25.4912 26.9872 24.1456C26.9872 22.7696 26.9312 21.1264 26.8752 19.5056L26.8592 19.0304C26.8 17.2736 26.7472 15.5664 26.7824 14.3472C26.7883 14.1361 26.8775 13.936 27.0304 13.7904C27.6672 13.1856 28.8176 11.616 28.8176 9.8912C28.8176 7.3568 26.624 5.624 24.5712 5.6L24.68 5.6912C25.8848 6.7136 26.8384 8.1904 26.8384 9.8912V9.9328C26.752 11.584 26.336 12.6976 25.7568 13.5488C25.3456 14.152 24.832 14.6304 24.424 15.0112L24.2992 15.1264C24.2656 16.6784 24.28 18.7888 24.2928 20.8832C24.3008 22.0032 24.3088 23.12 24.3088 24.1456C24.3088 24.8208 24.28 25.4096 24.1792 25.9024V25.904Z" fill="#5D5D5D"/>
</svg>
