<svg width="40" height="38" viewBox="0 0 40 38" fill="none" xmlns="http://www.w3.org/2000/svg">
<path opacity="0.4" d="M21.9526 1.22723L26.4056 10.1758C26.7336 10.8241 27.3598 11.2743 28.0819 11.3744L38.0841 12.8311C38.6682 12.9132 39.1983 13.2213 39.5564 13.6916C39.9105 14.1558 40.0625 14.7441 39.9765 15.3224C39.9065 15.8026 39.6804 16.2469 39.3343 16.587L32.0868 23.6126C31.5567 24.1029 31.3166 24.8292 31.4446 25.5396L33.229 35.4166C33.4191 36.6092 32.6289 37.7338 31.4446 37.9599C30.9565 38.0379 30.4564 37.9559 30.0163 37.7318L21.0944 33.0834C20.4323 32.7493 19.6501 32.7493 18.988 33.0834L10.0661 37.7318C8.96982 38.3141 7.61152 37.9179 7.00139 36.8373C6.77535 36.4071 6.69533 35.9169 6.76934 35.4386L8.55373 25.5596C8.68175 24.8512 8.4397 24.1209 7.91159 23.6306L0.664033 16.609C-0.198152 15.7766 -0.224157 14.4059 0.606021 13.5435C0.624025 13.5255 0.644029 13.5055 0.664033 13.4855C1.00811 13.1353 1.4602 12.9132 1.94831 12.8551L11.9505 11.3964C12.6706 11.2943 13.2967 10.8481 13.6268 10.1958L17.9197 1.22723C18.3018 0.458837 19.094 -0.0194058 19.9542 0.000604412H20.2222C20.9684 0.0906502 21.6185 0.552885 21.9526 1.22723Z" fill="#E5641C"/>
<path d="M19.984 32.8342C19.5966 32.8462 19.2192 32.9503 18.8797 33.1365L10.0014 37.7743C8.91512 38.2927 7.61513 37.8904 7.00607 36.8515C6.78042 36.4272 6.69854 35.9408 6.77443 35.4644L8.54769 25.6063C8.6675 24.8897 8.42787 24.1611 7.90668 23.6567L0.655874 16.637C-0.204796 15.7943 -0.220772 14.4111 0.621927 13.5484C0.633908 13.5364 0.643893 13.5264 0.655874 13.5164C0.999344 13.1761 1.44266 12.9519 1.91992 12.8819L11.9305 11.4087C12.6553 11.3166 13.2844 10.8642 13.6039 10.2077L17.9552 1.12624C18.3685 0.393636 19.1613 -0.042722 20 0.00331574C19.984 0.597803 19.984 32.4299 19.984 32.8342Z" fill="#E5641C"/>
</svg>
